<svg version="1.1" preserveAspectRatio="none" xmlns="http://www.w3.org/2000/svg" width="500" height="500" viewBox="0 0 500 500"><rect width="100%" height="100%" fill="#0E0E0E" fill-opacity="1"/><svg viewBox="77.4458 180.5255 378.465 134" width="333" height="117.90258015932783" x="83.5px" y="191.0487px" xmlns="http://www.w3.org/2000/svg" xmlns:xlink="http://www.w3.org/1999/xlink" preserveAspectRatio="none"><defs></defs><style>.background {fill:#0E0E0E;fill-opacity:1;}.companyName {fill:#EBE7D9;fill-opacity:1;}.icon3 {fill:#DFDFDF;fill-opacity:1;}.icon3-str {stroke:#DFDFDF;stroke-opacity:1;}.shapeStroke-str {stroke:#EBE7D9;stroke-opacity:1;}</style><g opacity="1" transform="rotate(0 121.9262 181.5255)">
<svg width="289.5041" height="98" x="121.9262" y="181.5255" version="1.1" preserveAspectRatio="none" viewBox="0 0 289.5041 98">
  <defs><rect x="0" y="0" width="289.5041" height="98" rx="0px" ry="0px" id="id-MGa_3CcrI1713043359479"></rect></defs><use class="icon3 shapeStroke-str" style="stroke-width:0;" xlink:href="#id-MGa_3CcrI1713043359479"></use>
</svg>
</g><g opacity="1" transform="rotate(0 121.9262 180.5255)">
<svg width="289.5041" height="100" x="121.9262" y="180.5255" version="1.1" preserveAspectRatio="none" viewBox="2.8 -28.56 167.67999999999998 57.92">
  <g transform="matrix(1 0 0 1 0 0)" class="background"><path id="id-D6z1nYkh11" d="M2.80 0L2.80-28L16.04-28Q20.64-28 24.20-26.28Q27.76-24.56 29.72-21.40Q31.68-18.24 31.68-14L31.68-14Q31.68-9.76 29.72-6.60Q27.76-3.44 24.20-1.72Q20.64 0 16.04 0L16.04 0L2.80 0ZM10.72-6.32L15.72-6.32Q19.32-6.32 21.50-8.36Q23.68-10.40 23.68-14L23.68-14Q23.68-17.60 21.50-19.64Q19.32-21.68 15.72-21.68L15.72-21.68L10.72-21.68L10.72-6.32Z M35.84 0L35.84-28L43.76-28L43.76 0L35.84 0Z M68.16-6.92L68.16-14.60L75.16-14.60L75.16-3Q72.76-1.28 69.64-0.36Q66.52 0.56 63.40 0.56L63.40 0.56Q59 0.56 55.48-1.30Q51.96-3.16 49.96-6.48Q47.96-9.80 47.96-14L47.96-14Q47.96-18.20 49.96-21.52Q51.96-24.84 55.52-26.70Q59.08-28.56 63.56-28.56L63.56-28.56Q67.48-28.56 70.60-27.24Q73.72-25.92 75.80-23.44L75.80-23.44L70.76-18.88Q67.92-22 63.96-22L63.96-22Q60.36-22 58.16-19.82Q55.96-17.64 55.96-14L55.96-14Q55.96-11.68 56.96-9.86Q57.96-8.04 59.76-7.02Q61.56-6 63.88-6L63.88-6Q66.16-6 68.16-6.92L68.16-6.92Z M80.20 0L80.20-28L88.12-28L88.12 0L80.20 0Z M99.72 0L99.72-21.72L91.12-21.72L91.12-28L116.20-28L116.20-21.72L107.64-21.72L107.64 0L99.72 0Z M138.72 0L136.52-5.44L124.68-5.44L122.48 0L114.40 0L126.76-28L134.56-28L146.96 0L138.72 0ZM127.00-11.28L134.20-11.28L130.60-20.24L127.00-11.28Z M149.20 0L149.20-28L157.12-28L157.12-6.28L170.48-6.28L170.48 0L149.20 0Z M14.60 29.36Q11.20 29.36 8.00 28.52Q4.80 27.68 2.80 26.28L2.80 26.28L5.40 20.44Q7.28 21.68 9.76 22.44Q12.24 23.20 14.64 23.20L14.64 23.20Q19.20 23.20 19.20 20.92L19.20 20.92Q19.20 19.72 17.90 19.14Q16.60 18.56 13.72 17.92L13.72 17.92Q10.56 17.24 8.44 16.46Q6.32 15.68 4.80 13.96Q3.28 12.24 3.28 9.32L3.28 9.32Q3.28 6.76 4.68 4.70Q6.08 2.64 8.86 1.44Q11.64 0.24 15.68 0.24L15.68 0.24Q18.44 0.24 21.12 0.86Q23.80 1.48 25.84 2.68L25.84 2.68L23.40 8.56Q19.40 6.40 15.64 6.40L15.64 6.40Q13.28 6.40 12.20 7.10Q11.12 7.80 11.12 8.92L11.12 8.92Q11.12 10.04 12.40 10.60Q13.68 11.16 16.52 11.76L16.52 11.76Q19.72 12.44 21.82 13.22Q23.92 14.00 25.46 15.70Q27 17.40 27 20.32L27 20.32Q27 22.84 25.60 24.88Q24.20 26.92 21.40 28.14Q18.60 29.36 14.60 29.36L14.60 29.36Z M44.76 29.36Q40.32 29.36 36.78 27.48Q33.24 25.60 31.22 22.28Q29.20 18.96 29.20 14.80L29.20 14.80Q29.20 10.64 31.22 7.32Q33.24 4.00 36.78 2.12Q40.32 0.24 44.76 0.24L44.76 0.24Q49.20 0.24 52.74 2.12Q56.28 4.00 58.30 7.32Q60.32 10.64 60.32 14.80L60.32 14.80Q60.32 18.96 58.30 22.28Q56.28 25.60 52.74 27.48Q49.20 29.36 44.76 29.36L44.76 29.36ZM44.76 22.80Q46.88 22.80 48.60 21.80Q50.32 20.80 51.32 18.98Q52.32 17.16 52.32 14.80L52.32 14.80Q52.32 12.44 51.32 10.62Q50.32 8.80 48.60 7.80Q46.88 6.80 44.76 6.80L44.76 6.80Q42.64 6.80 40.92 7.80Q39.20 8.80 38.20 10.62Q37.20 12.44 37.20 14.80L37.20 14.80Q37.20 17.16 38.20 18.98Q39.20 20.80 40.92 21.80Q42.64 22.80 44.76 22.80L44.76 22.80Z M86.44 6.92L72.40 6.92L72.40 13.08L84.76 13.08L84.76 19.20L72.40 19.20L72.40 28.80L64.48 28.80L64.48 0.80L86.44 0.80L86.44 6.92Z M96.32 28.80L96.32 7.08L87.72 7.08L87.72 0.80L112.80 0.80L112.80 7.08L104.24 7.08L104.24 28.80L96.32 28.80Z"/></g>
</svg>
</g><g opacity="1" transform="rotate(0 77.4458 300.5255)">
<svg width="378.465" height="14" x="77.4458" y="300.5255" version="1.1" preserveAspectRatio="none" viewBox="1.64 -28.32 774.24 28.64">
  <g transform="matrix(1 0 0 1 0 0)" class="companyName"><path id="id-6izo4zJp22" d="M12.36 0.32Q9.20 0.32 6.26-0.66Q3.32-1.64 1.64-3.20L1.64-3.20L3.12-6.32Q4.72-4.88 7.22-3.98Q9.72-3.08 12.36-3.08L12.36-3.08Q15.84-3.08 17.56-4.26Q19.28-5.44 19.28-7.40L19.28-7.40Q19.28-8.84 18.34-9.74Q17.40-10.64 16.02-11.12Q14.64-11.60 12.12-12.20L12.12-12.20Q8.96-12.96 7.02-13.72Q5.08-14.48 3.70-16.06Q2.32-17.64 2.32-20.32L2.32-20.32Q2.32-22.56 3.50-24.36Q4.68-26.16 7.08-27.24Q9.48-28.32 13.04-28.32L13.04-28.32Q15.52-28.32 17.92-27.68Q20.32-27.04 22.04-25.84L22.04-25.84L20.72-22.64Q18.96-23.76 16.96-24.34Q14.96-24.92 13.04-24.92L13.04-24.92Q9.64-24.92 7.94-23.68Q6.24-22.44 6.24-20.48L6.24-20.48Q6.24-19.04 7.20-18.14Q8.16-17.24 9.58-16.74Q11-16.24 13.44-15.68L13.44-15.68Q16.60-14.92 18.52-14.16Q20.44-13.40 21.82-11.84Q23.20-10.28 23.20-7.64L23.20-7.64Q23.20-5.44 22-3.62Q20.80-1.80 18.36-0.74Q15.92 0.32 12.36 0.32L12.36 0.32Z M53.68 0.32Q49.44 0.32 46.04-1.54Q42.64-3.40 40.70-6.68Q38.76-9.96 38.76-14L38.76-14Q38.76-18.04 40.70-21.32Q42.64-24.60 46.04-26.46Q49.44-28.32 53.68-28.32L53.68-28.32Q57.88-28.32 61.28-26.46Q64.68-24.60 66.60-21.34Q68.52-18.08 68.52-14L68.52-14Q68.52-9.92 66.60-6.66Q64.68-3.40 61.28-1.54Q57.88 0.32 53.68 0.32L53.68 0.32ZM53.68-3.24Q56.76-3.24 59.22-4.64Q61.68-6.04 63.10-8.50Q64.52-10.96 64.52-14L64.52-14Q64.52-17.04 63.10-19.50Q61.68-21.96 59.22-23.36Q56.76-24.76 53.68-24.76L53.68-24.76Q50.60-24.76 48.10-23.36Q45.60-21.96 44.18-19.50Q42.76-17.04 42.76-14L42.76-14Q42.76-10.96 44.18-8.50Q45.60-6.04 48.10-4.64Q50.60-3.24 53.68-3.24L53.68-3.24Z M86.64 0L86.64-28L90.64-28L90.64-3.48L105.80-3.48L105.80 0L86.64 0Z M133.52 0.32Q127.92 0.32 124.80-2.88Q121.68-6.08 121.68-12.08L121.68-12.08L121.68-28L125.68-28L125.68-12.24Q125.68-3.24 133.56-3.24L133.56-3.24Q137.40-3.24 139.44-5.46Q141.48-7.68 141.48-12.24L141.48-12.24L141.48-28L145.36-28L145.36-12.08Q145.36-6.04 142.24-2.86Q139.12 0.32 133.52 0.32L133.52 0.32Z M178.08 0.32Q173.88 0.32 170.50-1.54Q167.12-3.40 165.20-6.66Q163.28-9.92 163.28-14L163.28-14Q163.28-18.08 165.20-21.34Q167.12-24.60 170.52-26.46Q173.92-28.32 178.12-28.32L178.12-28.32Q181.40-28.32 184.12-27.22Q186.84-26.12 188.76-23.96L188.76-23.96L186.16-21.44Q183-24.76 178.28-24.76L178.28-24.76Q175.16-24.76 172.64-23.36Q170.12-21.96 168.70-19.50Q167.28-17.04 167.28-14L167.28-14Q167.28-10.96 168.70-8.50Q170.12-6.04 172.64-4.64Q175.16-3.24 178.28-3.24L178.28-3.24Q182.96-3.24 186.16-6.60L186.16-6.60L188.76-4.08Q186.84-1.92 184.10-0.80Q181.36 0.32 178.08 0.32L178.08 0.32Z M206.48 0L206.48-28L210.48-28L210.48 0L206.48 0Z M243.52 0.32Q239.28 0.32 235.88-1.54Q232.48-3.40 230.54-6.68Q228.60-9.96 228.60-14L228.60-14Q228.60-18.04 230.54-21.32Q232.48-24.60 235.88-26.46Q239.28-28.32 243.52-28.32L243.52-28.32Q247.72-28.32 251.12-26.46Q254.52-24.60 256.44-21.34Q258.36-18.08 258.36-14L258.36-14Q258.36-9.92 256.44-6.66Q254.52-3.40 251.12-1.54Q247.72 0.32 243.52 0.32L243.52 0.32ZM243.52-3.24Q246.60-3.24 249.06-4.64Q251.52-6.04 252.94-8.50Q254.36-10.96 254.36-14L254.36-14Q254.36-17.04 252.94-19.50Q251.52-21.96 249.06-23.36Q246.60-24.76 243.52-24.76L243.52-24.76Q240.44-24.76 237.94-23.36Q235.44-21.96 234.02-19.50Q232.60-17.04 232.60-14L232.60-14Q232.60-10.96 234.02-8.50Q235.44-6.04 237.94-4.64Q240.44-3.24 243.52-3.24L243.52-3.24Z M296.56-28L300.56-28L300.56 0L297.28 0L280.48-20.88L280.48 0L276.48 0L276.48-28L279.76-28L296.56-7.12L296.56-28Z M324.96-3.48L341.28-3.48L341.28 0L320.96 0L320.96-28L340.72-28L340.72-24.52L324.96-24.52L324.96-15.92L339.00-15.92L339.00-12.52L324.96-12.52L324.96-3.48Z M367.92 0.32Q364.76 0.32 361.82-0.66Q358.88-1.64 357.20-3.20L357.20-3.20L358.68-6.32Q360.28-4.88 362.78-3.98Q365.28-3.08 367.92-3.08L367.92-3.08Q371.40-3.08 373.12-4.26Q374.84-5.44 374.84-7.40L374.84-7.40Q374.84-8.84 373.90-9.74Q372.96-10.64 371.58-11.12Q370.20-11.60 367.68-12.20L367.68-12.20Q364.52-12.96 362.58-13.72Q360.64-14.48 359.26-16.06Q357.88-17.64 357.88-20.32L357.88-20.32Q357.88-22.56 359.06-24.36Q360.24-26.16 362.64-27.24Q365.04-28.32 368.60-28.32L368.60-28.32Q371.08-28.32 373.48-27.68Q375.88-27.04 377.60-25.84L377.60-25.84L376.28-22.64Q374.52-23.76 372.52-24.34Q370.52-24.92 368.60-24.92L368.60-24.92Q365.20-24.92 363.50-23.68Q361.80-22.44 361.80-20.48L361.80-20.48Q361.80-19.04 362.76-18.14Q363.72-17.24 365.14-16.74Q366.56-16.24 369.00-15.68L369.00-15.68Q372.16-14.92 374.08-14.16Q376.00-13.40 377.38-11.84Q378.76-10.28 378.76-7.64L378.76-7.64Q378.76-5.44 377.56-3.62Q376.36-1.80 373.92-0.74Q371.48 0.32 367.92 0.32L367.92 0.32Z M427.52 0.32Q424.36 0.32 421.42-0.66Q418.48-1.64 416.80-3.20L416.80-3.20L418.28-6.32Q419.88-4.88 422.38-3.98Q424.88-3.08 427.52-3.08L427.52-3.08Q431-3.08 432.72-4.26Q434.44-5.44 434.44-7.40L434.44-7.40Q434.44-8.84 433.50-9.74Q432.56-10.64 431.18-11.12Q429.80-11.60 427.28-12.20L427.28-12.20Q424.12-12.96 422.18-13.72Q420.24-14.48 418.86-16.06Q417.48-17.64 417.48-20.32L417.48-20.32Q417.48-22.56 418.66-24.36Q419.84-26.16 422.24-27.24Q424.64-28.32 428.20-28.32L428.20-28.32Q430.68-28.32 433.08-27.68Q435.48-27.04 437.20-25.84L437.20-25.84L435.88-22.64Q434.12-23.76 432.12-24.34Q430.12-24.92 428.20-24.92L428.20-24.92Q424.80-24.92 423.10-23.68Q421.40-22.44 421.40-20.48L421.40-20.48Q421.40-19.04 422.36-18.14Q423.32-17.24 424.74-16.74Q426.16-16.24 428.60-15.68L428.60-15.68Q431.76-14.92 433.68-14.16Q435.60-13.40 436.98-11.84Q438.36-10.28 438.36-7.64L438.36-7.64Q438.36-5.44 437.16-3.62Q435.96-1.80 433.52-0.74Q431.08 0.32 427.52 0.32L427.52 0.32Z M456.20 0L456.20-28L460.20-28L460.20 0L456.20 0Z M500.68-28L504.68-28L504.68 0L501.40 0L484.60-20.88L484.60 0L480.60 0L480.60-28L483.88-28L500.68-7.12L500.68-28Z M547.84 0L547.84-28L551.84-28L551.84-3.48L567-3.48L567 0L547.84 0Z M583.60 0L583.60-28L587.60-28L587.60 0L583.60 0Z M637.80 0L633.96 0L633.92-20.40L623.80-3.40L621.96-3.40L611.84-20.28L611.84 0L608 0L608-28L611.28-28L622.96-8.32L634.48-28L637.76-28L637.80 0Z M658.20 0L658.20-28L662.20-28L662.20 0L658.20 0Z M688.16 0L688.16-24.52L678.56-24.52L678.56-28L701.72-28L701.72-24.52L692.12-24.52L692.12 0L688.16 0Z M722.08-3.48L738.40-3.48L738.40 0L718.08 0L718.08-28L737.84-28L737.84-24.52L722.08-24.52L722.08-15.92L736.12-15.92L736.12-12.52L722.08-12.52L722.08-3.48Z M765.04 0.32Q761.88 0.32 758.94-0.66Q756-1.64 754.32-3.20L754.32-3.20L755.80-6.32Q757.40-4.88 759.90-3.98Q762.40-3.08 765.04-3.08L765.04-3.08Q768.52-3.08 770.24-4.26Q771.96-5.44 771.96-7.40L771.96-7.40Q771.96-8.84 771.02-9.74Q770.08-10.64 768.70-11.12Q767.32-11.60 764.80-12.20L764.80-12.20Q761.64-12.96 759.70-13.72Q757.76-14.48 756.38-16.06Q755-17.64 755-20.32L755-20.32Q755-22.56 756.18-24.36Q757.36-26.16 759.76-27.24Q762.16-28.32 765.72-28.32L765.72-28.32Q768.20-28.32 770.60-27.68Q773-27.04 774.72-25.84L774.72-25.84L773.40-22.64Q771.64-23.76 769.64-24.34Q767.64-24.92 765.72-24.92L765.72-24.92Q762.32-24.92 760.62-23.68Q758.92-22.44 758.92-20.48L758.92-20.48Q758.92-19.04 759.88-18.14Q760.84-17.24 762.26-16.74Q763.68-16.24 766.12-15.68L766.12-15.68Q769.28-14.92 771.20-14.16Q773.12-13.40 774.50-11.84Q775.88-10.28 775.88-7.64L775.88-7.64Q775.88-5.44 774.68-3.62Q773.48-1.80 771.04-0.74Q768.60 0.32 765.04 0.32L765.04 0.32Z"/></g>
</svg>
</g></svg></svg>